<?xml version="1.0" ?>
<svg
  enable-background="new 0 0 1024 1024"
  id="amazon"
  version="1.1"
  viewBox="0 0 1024 1024"
  xml:space="preserve"
  xmlns="http://www.w3.org/2000/svg" xmlns:xlink="http://www.w3.org/1999/xlink">
  <g>
    <path d="M925.6 885.2c-112.2 82.8-274.6 126.8-414.6 126.8-196.2 0-372.8-72.4-506.4-193.2-10.4-9.4-1.2-22.4 11.4-15 144.2 84 322.6 134.4 506.8 134.4 124.2 0 260.8-25.8 386.6-79.2 18.8-8 34.8 12.6 16.2 26.2z">
    </path>

    <path d="M972.2 832c-14.4-18.4-94.8-8.8-131-4.4-11 1.2-12.6-8.2-2.8-15.2 64.2-45 169.4-32 181.6-17 12.4 15.2-3.2 120.6-63.4 171-9.2 7.8-18 3.6-14-6.6 13.8-33.8 44-109.4 29.6-127.8z">
    </path>

    <path d="M707.4 757.6l0.2 0.2c24.8-21.8 69.4-60.8 94.6-81.8 10-8 8.2-21.4 0.4-32.6-22.6-31.2-46.6-56.6-46.6-114.2v-192c0-81.4 5.6-156-54.2-212-47.2-45.2-125.6-61.2-185.6-61.2-117.2 0-248 43.8-275.4 188.6-3 15.4 8.4 23.6 18.4 25.8l119.4 13c11.2-0.6 19.2-11.6 21.4-22.8 10.2-49.8 52-74 99-74 25.4 0 54.2 9.2 69.2 32 17.2 25.4 15 60 15 89.4v16c-71.4 8-164.8 13.2-231.6 42.6-77.2 33.4-131.4 101.4-131.4 201.4 0 128 80.6 192 184.4 192 87.6 0 135.4-20.6 203-89.8 22.4 32.4 29.6 48.2 70.6 82.2 9.4 5 21 4.6 29.2-2.8zM583.2 457.2c0 48 1.2 88-23 130.6-19.6 34.8-50.6 56-85.2 56-47.2 0-74.8-36-74.8-89.2 0-105 94.2-124 183.2-124v26.6z">
    </path>
  </g>
</svg>
